<?xml version="1.0" standalone="no"?>
<!DOCTYPE svg PUBLIC "-//W3C//DTD SVG 20010904//EN"
 "http://www.w3.org/TR/2001/REC-SVG-20010904/DTD/svg10.dtd">
<svg version="1.0" xmlns="http://www.w3.org/2000/svg"
 width="140.000000pt" height="140.000000pt" viewBox="0 0 140.000000 140.000000"
 preserveAspectRatio="xMidYMid meet">
<metadata>
Created by potrace 1.14, written by Peter Selinger 2001-2017
</metadata>
<g transform="translate(0.000000,140.000000) scale(0.100000,-0.100000)"
fill="#000000" stroke="none">
<path d="M314 1292 c-98 -41 -224 -108 -224 -119 0 -25 71 -92 113 -106 60
-20 104 -13 220 34 56 23 109 44 117 47 8 3 -1 -8 -20 -24 -49 -41 -52 -44
-88 -94 -56 -79 -77 -151 -76 -265 1 -94 4 -108 49 -230 26 -72 61 -150 78
-174 72 -105 175 -170 309 -196 54 -10 90 -24 119 -45 86 -62 178 -30 214 73
11 31 36 76 55 99 97 115 132 205 129 331 -1 62 -10 104 -41 194 -50 148 -79
204 -136 265 -114 123 -295 170 -461 122 -52 -15 -54 -15 -68 6 -62 89 -187
124 -289 82z"/>
</g>
</svg>
