<svg width="34" height="28" viewBox="0 0 34 28" xmlns="http://www.w3.org/2000/svg">
<path fill-rule="evenodd" clip-rule="evenodd" d="M33.2546 20.8952C32.5639 18.5269 30.393 16.8247 27.778 16.8247C27.0132 16.8247 26.2978 16.9727 25.6564 17.2194C25.8291 16.504 25.9278 15.7639 25.9278 14.9991C25.9278 13.1242 25.3604 11.3974 24.4229 9.96652C24.5956 9.99119 24.7683 10.0159 24.9656 10.0159H25.9771V4.51454H24.9656C23.6828 4.51454 22.622 5.37797 22.3013 6.53745H19.1189C18.6996 6.53745 18.3789 6.85815 18.3789 7.27753C18.3789 7.69692 18.6996 8.01762 19.1189 8.01762H22.2767C22.326 8.21498 22.4 8.41234 22.4987 8.58502V19.2176C22.4987 19.9824 21.8819 20.6238 21.1172 20.6238H18.6749C14.8018 20.6238 14.9991 16.8987 14.9251 14.9498H7.49956C4.90925 14.9498 1.03612 18.2802 0 22.5974H23.7075C23.6335 22.9181 23.6088 23.2388 23.6088 23.5595C23.6088 26.0018 25.5824 28 28.0493 28C30.5163 28 32.4899 26.0264 32.4899 23.5595C32.4899 22.548 32.1445 21.6352 31.5771 20.8952H33.2546ZM28.0247 25.7057C26.8652 25.7057 25.9031 24.7683 25.9031 23.5841C25.9031 22.4 26.8405 21.4626 28.0247 21.4626C29.2088 21.4626 30.1463 22.4 30.1463 23.5841C30.1463 24.7683 29.2088 25.7057 28.0247 25.7057Z" />
<path fill-rule="evenodd" clip-rule="evenodd" d="M1.43084 11.9441C1.43084 12.7866 2.11857 13.4696 2.95257 13.4696H13.4034C14.2438 13.4696 14.9251 12.7831 14.9251 11.9441V1.52548C14.9251 0.682981 14.2374 0 13.4034 0H2.95257C2.11214 0 1.43084 0.686478 1.43084 1.52548V11.9441ZM7.59824 5.92071H3.6511C3.23172 5.92071 2.91101 5.57533 2.91101 5.18062C2.91101 4.76123 3.23172 4.44053 3.6511 4.44053H7.59824C8.01762 4.44053 8.33833 4.76123 8.33833 5.18062C8.33833 5.6 8.01762 5.92071 7.59824 5.92071ZM11.052 2.96035H3.6511C3.23172 2.96035 2.91101 2.61498 2.91101 2.22026C2.91101 1.80088 3.23172 1.48018 3.6511 1.48018H11.052C11.4714 1.48018 11.7921 1.80088 11.7921 2.22026C11.7921 2.63965 11.4714 2.96035 11.052 2.96035Z" />
<path fill-rule="evenodd" clip-rule="evenodd" d="M9.44846 24.1022C9.10308 24.8176 8.38767 25.311 7.52423 25.311C6.66079 25.311 5.94537 24.8176 5.6 24.1022H3.18238C3.60176 26.1251 5.37797 27.63 7.52423 27.63C9.67048 27.63 11.4467 26.1004 11.8661 24.1022H9.44846Z" />
</svg>
